<?xml version="1.0" encoding="utf-8"?>
<!-- Generator: Adobe Illustrator 25.0.0, SVG Export Plug-In . SVG Version: 6.00 Build 0)  -->
<svg version="1.1" id="Layer_1" xmlns="http://www.w3.org/2000/svg" xmlns:xlink="http://www.w3.org/1999/xlink" x="0px" y="0px"
	 viewBox="0 0 1080 1080" style="enable-background:new 0 0 1080 1080;" xml:space="preserve">
<style type="text/css">
	.st0{fill:#8E949B;}
	.st1{fill:url(#SVGID_1_);}
	.st2{fill:#FFFFFF;}
</style>
<g>
	<path class="st0" d="M894.7,434.1v111.6c0,63.6-51.6,115.2-115.2,115.2H661.4v233.4H549.8c-63.6,0-115.2-51.6-115.2-115.2V660.9
		H201.3V549.3c0-63.6,51.6-115.1,115.2-115.1h118.2V200.8h111.6c63.6,0,115.2,51.5,115.2,115.1v118.2H894.7z"/>
	<linearGradient id="SVGID_1_" gradientUnits="userSpaceOnUse" x1="301.9575" y1="302.4575" x2="762.0425" y2="762.5425">
		<stop  offset="0.3097" style="stop-color:#A70A15"/>
		<stop  offset="0.6776" style="stop-color:#163196"/>
	</linearGradient>
	<path class="st1" d="M878.7,419.1v111.6c0,63.6-51.6,115.2-115.2,115.2H645.4v233.4H533.8c-63.6,0-115.2-51.6-115.2-115.2V645.9
		H185.3V534.3c0-63.6,51.6-115.1,115.2-115.1h118.2V185.8h111.6c63.6,0,115.2,51.5,115.2,115.1v118.2H878.7z"/>
	<g>
		<path class="st2" d="M508.3,398.2c0,0-7.1,7.4-7.9,9.4c-0.8,2,1.3,27.8,7.9,28.6c6.6,0.8,12-8.2,15.8-15.3s2.8-11.5-1-15.8
			c-3.8-4.3-4.1-7.7-0.3-12.8s21.2-18.4,38-2c16.9,16.3,2,43.1-11.5,48.5s-25.5,8.9-45.4,12.5c-19.9,3.6-40.6,13.8-46,28.9
			c-5.4,15.1-11.6,54.5,30.4,72.5c14.3,6.1,22.9,6.6,22.9,6.6v-18.1c0,0-32.1-8.2-33.4-39.3c-1.3-31.1,32.9-27.8,62.6-40.6
			c29.6-12.8,42.4-28.9,42.1-49.3s-12.8-42.1-38.8-41.6C517.7,370.9,511.1,387.7,508.3,398.2z"/>
		<path class="st2" d="M534.4,546.5v17.6c0,0,17.2,8.9,10.7,22.2c-6.5,13.3-34,8.7-39.9,6.6c-5.9-2-20.2-15.1,5.4-14.8l0.3-13.3
			c0,0-8.2-1.3-19.1,0s-25.3,14.1-12.3,30.5c13,16.4,51.8,18.2,67.2,9.8s18.9-20.7,18.4-29.9C564.4,566.2,555.9,547.1,534.4,546.5z"
			/>
		<path class="st2" d="M555,605c0,0-7.7,2.9-10.5,5.2c-2.8,2.3-4.6,6-5.4,9.2c-0.8,3.2-4.3,9.1-14,11.7c-9.7,2.7-31.3,5.9-38.2,14.6
			c-1.4,1.8-1.7,4.1,5,1.4c6.6-2.7,17.4-4.7,26.7-5.1c9.3-0.4,17.4,0.8,25.5-6.1S558.3,618.7,555,605z"/>
		<path class="st2" d="M535.2,574.6v13.9c0,0,6.8-1.6,6.9-8.2C542.2,574.6,535.2,574.6,535.2,574.6z"/>
		<path class="st2" d="M451.8,482.3h-65.4c0,0-3.3,1.7,2.7,5.3c3.7,2.2,11.7,3.6,19.6,4.4c7.8,0.9,27.2,6.9,39.1,21.3
			c0.9,1,1.7,0.7,1.7-1.2C449.6,510.2,446.9,496.1,451.8,482.3z"/>
		<path class="st2" d="M659.5,482.3H492.3c0,0-8.3,2.9-9.7,12.9c-1.4,10,2.1,29.5,18.1,36.9c8.7,4,14.9,4.1,14.9,8.7
			c0,5.8,0,48.2,0,48.2s0,2.9,2.9,2.9c2.9,0,9.1,0,9.1,0s2.6,0.8,2.6-4.3c0-5,0-43.4,0-43.4s0.3-3.7,6.1-3.9
			c5.8-0.2,37.5-3.9,65.7-31.1c14.5-14,31.6-16.9,40.7-17.7C654.6,490.5,665.8,482.3,659.5,482.3z"/>
		<path class="st2" d="M515,617.4v12.4c0,0,8.5-1.3,13.1-4.3c3.9-2.6,3.2-3,3.2-6.6s-6.7-4-8.7-4C520.6,615,516.9,615.6,515,617.4z"
			/>
		<path class="st2" d="M589.3,684.2h-132c0,0-2.9-1.8,0.6-3.7c3.6-1.9,49.7-13.9,52.9-14.9c3.2-1,4.1-2.4,4.2-6.5
			c0-2.5,0-7.4,0-10.8c3.6-2.2,9.2-4,16.6-0.9c0,3.3,0,9,0,11.7c0.1,4.1,1,5.5,4.2,6.5c3.2,1,49.3,13,52.9,14.9
			C592.2,682.4,589.3,684.2,589.3,684.2z"/>
	</g>
</g>
</svg>
